<?xml version="1.0" encoding="utf-8"?>
<!-- Generator: Adobe Illustrator 22.0.1, SVG Export Plug-In . SVG Version: 6.00 Build 0)  -->
<svg version="1.1" baseProfile="tiny" xmlns="http://www.w3.org/2000/svg" xmlns:xlink="http://www.w3.org/1999/xlink" x="0px"
	 y="0px" viewBox="0 0 105 50.83" xml:space="preserve">
<g id="Layer_2_copy" display="none">
	<rect x="1" y="1" display="inline" fill="none" width="105" height="49.92"/>
	<text transform="matrix(1 0 0 1 1 22.8634)" display="inline" font-family="'BMWGroupCondensed-Bold'" font-size="29px">B</text>
	<text transform="matrix(1 0 0 1 18.9409 22.8634)" display="inline" font-family="'BMWGroupCondensed-Bold'" font-size="29px">M</text>
	<text transform="matrix(1 0 0 1 41.4414 22.8634)" display="inline" font-family="'BMWGroupCondensed-Bold'" font-size="29px">W</text>
	<text transform="matrix(1 0 0 1 64.1543 22.8634)" display="inline" font-family="'BMWGroupCondensed-Bold'" font-size="29px"> </text>
	<text transform="matrix(1 0 0 1 1 48.8639)" display="inline" font-family="'BMWGroupCondensed-Bold'" font-size="29px">G</text>
	<text transform="matrix(1 0 0 1 19.4082 48.8639)" display="inline" font-family="'BMWGroupCondensed-Bold'" font-size="29px">R</text>
	<text transform="matrix(1 0 0 1 36.5845 48.8639)" display="inline" font-family="'BMWGroupCondensed-Bold'" font-size="29px">O</text>
	<text transform="matrix(1 0 0 1 55.7715 48.8639)" display="inline" font-family="'BMWGroupCondensed-Bold'" font-size="29px">U</text>
	<text transform="matrix(1 0 0 1 73.627 48.8639)" display="inline" font-family="'BMWGroupCondensed-Bold'" font-size="29px">P</text>
</g>
<g id="Layer_1" display="none">
	
		<image display="inline" width="105" height="51" xlink:href="../../../Desktop/bmwgroup-logo.png"  transform="matrix(1 0 0 1 0 -0.0833)">
	</image>
</g>
<g id="Layer_2">
	<g>
		<path d="M5.46,23.01V2.47h7.77c0.65,0,1.28,0.08,1.91,0.25c0.63,0.16,1.19,0.45,1.68,0.85c0.5,0.4,0.9,0.94,1.2,1.62
			c0.31,0.67,0.46,1.52,0.46,2.54c0,0.67-0.11,1.31-0.32,1.9c-0.21,0.59-0.51,1.09-0.88,1.49c-0.37,0.4-0.78,0.72-1.22,0.97
			c0.93,0.43,1.65,1.03,2.17,1.82c0.51,0.78,0.77,1.74,0.77,2.87c0,1.33-0.21,2.43-0.63,3.3c-0.42,0.87-0.98,1.52-1.67,1.94
			c-0.69,0.43-1.4,0.7-2.13,0.82c-0.73,0.12-1.42,0.18-2.09,0.18H5.46z M9.28,10.74h2.7c0.3,0,0.61-0.03,0.92-0.09
			c0.31-0.06,0.59-0.19,0.83-0.37c0.24-0.19,0.44-0.45,0.6-0.78c0.16-0.33,0.23-0.77,0.23-1.31c0-0.76-0.16-1.35-0.47-1.76
			c-0.32-0.41-0.67-0.66-1.06-0.75c-0.39-0.09-0.74-0.14-1.04-0.14h-2.7V10.74z M9.28,19.91h2.66c0.77,0,1.39-0.12,1.86-0.35
			c0.47-0.23,0.79-0.59,0.96-1.06c0.17-0.47,0.26-1.01,0.26-1.62c0-0.88-0.15-1.55-0.46-2.01c-0.31-0.46-0.7-0.75-1.19-0.86
			c-0.49-0.12-0.97-0.17-1.44-0.17H9.28V19.91z"/>
		<path d="M22.31,23.01V2.47h4.76l4.02,15.41l4-15.41h4.68v20.53h-3.66V8.92l-3.56,14.08h-3.02L25.97,8.92v14.08H22.31z"/>
		<path d="M45.32,23.01L41.71,2.47h3.79l2.39,14.38l2.67-14.38h3.7l2.65,14.38l2.42-14.38h3.68l-3.82,20.53h-4.03L52.3,9l-2.95,14
			H45.32z"/>
		<path d="M12.01,47.84c-1.01,0-1.95-0.19-2.81-0.57c-0.86-0.38-1.61-0.99-2.24-1.84c-0.63-0.84-1.13-1.93-1.48-3.26
			c-0.35-1.33-0.53-2.95-0.53-4.85c0-1.78,0.17-3.35,0.52-4.7c0.35-1.35,0.84-2.48,1.5-3.39c0.65-0.91,1.45-1.59,2.4-2.05
			s2.02-0.69,3.22-0.69c1.36,0,2.51,0.23,3.47,0.69c0.96,0.46,1.7,1.19,2.23,2.19c0.53,1,0.89,2.13,1.08,3.38l-3.74,0.8
			c-0.17-0.9-0.41-1.63-0.73-2.21c-0.31-0.58-0.68-0.97-1.1-1.18c-0.42-0.21-0.86-0.32-1.31-0.32c-1.2,0-2.09,0.65-2.68,1.94
			c-0.59,1.29-0.88,3.17-0.88,5.63c0,2.44,0.31,4.23,0.93,5.37s1.5,1.72,2.63,1.72c0.43,0,0.83-0.07,1.2-0.21
			c0.38-0.14,0.7-0.37,0.98-0.67c0.28-0.31,0.5-0.69,0.66-1.16c0.16-0.47,0.24-1.03,0.24-1.69v-1.14h-2.26v-2.89h6.08v10.71H16.9
			l-0.35-2.07c-0.5,0.81-1.12,1.42-1.87,1.85C13.94,47.62,13.05,47.84,12.01,47.84z"/>
		<path d="M22.75,47.43V26.89h7.19c1.95,0,3.41,0.52,4.39,1.57c0.98,1.05,1.46,2.6,1.46,4.67c0,1.37-0.26,2.49-0.78,3.39
			c-0.52,0.89-1.22,1.57-2.11,2.03l3.46,8.88h-4.34l-2.86-8.17h-2.61v8.17H22.75z M26.57,36.15h2.45c0.89,0,1.57-0.25,2.05-0.74
			c0.48-0.49,0.73-1.29,0.73-2.39c0-1.05-0.23-1.82-0.69-2.31c-0.46-0.48-1.16-0.73-2.09-0.73h-2.45V36.15z"/>
		<path d="M46.05,47.84c-1.22,0-2.31-0.22-3.27-0.67c-0.95-0.45-1.76-1.12-2.41-2.01c-0.66-0.89-1.15-2-1.5-3.33
			c-0.34-1.33-0.51-2.88-0.51-4.64c0-1.78,0.17-3.34,0.51-4.67c0.34-1.33,0.84-2.45,1.5-3.34c0.66-0.9,1.46-1.57,2.41-2.02
			c0.95-0.45,2.04-0.67,3.27-0.67c1.21,0,2.3,0.22,3.25,0.67c0.95,0.45,1.76,1.12,2.42,2.02c0.66,0.9,1.16,2.01,1.51,3.34
			c0.34,1.33,0.52,2.89,0.52,4.67c0,1.76-0.17,3.31-0.52,4.64c-0.35,1.33-0.85,2.44-1.51,3.33c-0.66,0.89-1.47,1.56-2.42,2.01
			C48.35,47.61,47.27,47.84,46.05,47.84z M46.05,44.49c1.2,0,2.11-0.61,2.75-1.82c0.63-1.21,0.95-3.04,0.95-5.48
			c0-2.46-0.32-4.31-0.95-5.53c-0.63-1.22-1.55-1.83-2.75-1.83c-1.21,0-2.13,0.61-2.76,1.83c-0.63,1.22-0.95,3.06-0.95,5.53
			c0,2.44,0.32,4.26,0.95,5.48C43.93,43.88,44.85,44.49,46.05,44.49z"/>
		<path d="M63.48,47.92c-1.19,0-2.21-0.17-3.06-0.51c-0.85-0.34-1.55-0.84-2.1-1.48c-0.55-0.65-0.95-1.43-1.21-2.36
			c-0.26-0.93-0.39-1.97-0.39-3.13V26.89h3.92v13.49c0,0.74,0.06,1.36,0.17,1.88c0.11,0.52,0.28,0.94,0.52,1.28
			c0.23,0.33,0.53,0.57,0.88,0.72c0.35,0.15,0.78,0.23,1.26,0.23c0.97,0,1.68-0.32,2.13-0.96c0.45-0.64,0.68-1.69,0.68-3.15V26.89
			h3.91v13.54c0,1.16-0.13,2.21-0.39,3.13c-0.26,0.93-0.66,1.71-1.2,2.36c-0.54,0.65-1.24,1.14-2.09,1.48
			C65.67,47.75,64.66,47.92,63.48,47.92z"/>
		<path d="M73.68,47.43V26.89h7.17c0.94,0,1.77,0.14,2.49,0.43c0.72,0.29,1.32,0.71,1.81,1.26c0.49,0.55,0.86,1.23,1.1,2.03
			c0.25,0.8,0.37,1.72,0.37,2.75c0,1.03-0.15,1.95-0.44,2.75c-0.29,0.81-0.71,1.49-1.24,2.05s-1.17,0.98-1.92,1.28
			s-1.58,0.44-2.51,0.44h-3.02v7.54H73.68z M77.49,36.77h2.26c0.44,0,0.85-0.08,1.21-0.25c0.36-0.16,0.68-0.4,0.94-0.7
			c0.26-0.3,0.46-0.66,0.61-1.09c0.14-0.43,0.21-0.9,0.21-1.42c0-1.06-0.25-1.87-0.76-2.45c-0.51-0.58-1.24-0.87-2.21-0.87h-2.26
			V36.77z"/>
	</g>
</g>
</svg>
